<?xml version="1.0" encoding="UTF-8" standalone="no"?><!DOCTYPE svg PUBLIC "-//W3C//DTD SVG 1.1//EN" "http://www.w3.org/Graphics/SVG/1.1/DTD/svg11.dtd"><!-- Generated by graphviz version 2.40.1 (20161225.0304)
 --><!-- Title: BST Pages: 1 --><svg xmlns="http://www.w3.org/2000/svg" xmlns:xlink="http://www.w3.org/1999/xlink" width="358pt" height="191pt" viewBox="0.00 0.00 357.50 191.00">
<g id="graph0" class="graph" transform="scale(1 1) rotate(0) translate(4 187)">
<title>BST</title>
<polygon fill="#ffffff" stroke="transparent" points="-4,4 -4,-187 353.5,-187 353.5,4 -4,4"/>
<!-- A -->
<g id="node1" class="node">
<title>A</title>
<polygon fill="none" stroke="#000000" points="136.5,-146.5 136.5,-182.5 205.5,-182.5 205.5,-146.5 136.5,-146.5"/>
<text text-anchor="middle" x="146.25" y="-160.3" font-family="Times,serif" font-size="14.00" fill="#000000"> </text>
<polyline fill="none" stroke="#000000" points="156,-146.5 156,-182.5 "/>
<text text-anchor="middle" x="171" y="-160.3" font-family="Times,serif" font-size="14.00" fill="#000000">10</text>
<polyline fill="none" stroke="#000000" points="186,-146.5 186,-182.5 "/>
<text text-anchor="middle" x="195.75" y="-160.3" font-family="Times,serif" font-size="14.00" fill="#000000"> </text>
</g>
<!-- B -->
<g id="node2" class="node">
<title>B</title>
<polygon fill="none" stroke="#000000" points="70,-73.5 70,-109.5 132,-109.5 132,-73.5 70,-73.5"/>
<text text-anchor="middle" x="79.75" y="-87.3" font-family="Times,serif" font-size="14.00" fill="#000000"> </text>
<polyline fill="none" stroke="#000000" points="89.5,-73.5 89.5,-109.5 "/>
<text text-anchor="middle" x="101" y="-87.3" font-family="Times,serif" font-size="14.00" fill="#000000">8</text>
<polyline fill="none" stroke="#000000" points="112.5,-73.5 112.5,-109.5 "/>
<text text-anchor="middle" x="122.25" y="-87.3" font-family="Times,serif" font-size="14.00" fill="#000000"> </text>
</g>
<!-- A&#45;&gt;B -->
<g id="edge1" class="edge">
<title>A:c-&gt;B:data</title>
<path fill="none" stroke="#ff0000" d="M143.0157,-156.9879C141.4648,-153.4981 139.3926,-149.3825 137,-146 126.2064,-130.7407 108.8962,-131.2872 103.0238,-119.399"/>
<ellipse fill="#ff0000" stroke="#ff0000" cx="144.5232" cy="-160.7826" rx="4" ry="4"/>
<polygon fill="#ff0000" stroke="#ff0000" points="101,-109.5 107.4119,-118.3959 102.0016,-114.3987 103.0031,-119.2973 103.0031,-119.2973 103.0031,-119.2973 102.0016,-114.3987 98.5943,-120.1987 101,-109.5 101,-109.5"/>
</g>
<!-- C -->
<g id="node3" class="node">
<title>C</title>
<polygon fill="none" stroke="#000000" points="207.5,-73.5 207.5,-109.5 276.5,-109.5 276.5,-73.5 207.5,-73.5"/>
<text text-anchor="middle" x="217.25" y="-87.3" font-family="Times,serif" font-size="14.00" fill="#000000"> </text>
<polyline fill="none" stroke="#000000" points="227,-73.5 227,-109.5 "/>
<text text-anchor="middle" x="242" y="-87.3" font-family="Times,serif" font-size="14.00" fill="#000000">12</text>
<polyline fill="none" stroke="#000000" points="257,-73.5 257,-109.5 "/>
<text text-anchor="middle" x="266.75" y="-87.3" font-family="Times,serif" font-size="14.00" fill="#000000"> </text>
</g>
<!-- A&#45;&gt;C -->
<g id="edge2" class="edge">
<title>A:c-&gt;C:data</title>
<path fill="none" stroke="#ff0000" d="M198.9635,-156.9731C200.5099,-153.4801 202.5843,-149.366 205,-146 216.0482,-130.6055 233.8682,-131.4501 239.9156,-119.4999"/>
<ellipse fill="#ff0000" stroke="#ff0000" cx="197.4654" cy="-160.7781" rx="4" ry="4"/>
<polygon fill="#ff0000" stroke="#ff0000" points="242,-109.5 244.3646,-120.2079 240.9797,-114.3948 239.9593,-119.2896 239.9593,-119.2896 239.9593,-119.2896 240.9797,-114.3948 235.554,-118.3713 242,-109.5 242,-109.5"/>
</g>
<!-- D -->
<g id="node4" class="node">
<title>D</title>
<polygon fill="none" stroke="#000000" points="0,-.5 0,-36.5 62,-36.5 62,-.5 0,-.5"/>
<text text-anchor="middle" x="9.75" y="-14.3" font-family="Times,serif" font-size="14.00" fill="#000000"> </text>
<polyline fill="none" stroke="#000000" points="19.5,-.5 19.5,-36.5 "/>
<text text-anchor="middle" x="31" y="-14.3" font-family="Times,serif" font-size="14.00" fill="#000000">7</text>
<polyline fill="none" stroke="#000000" points="42.5,-.5 42.5,-36.5 "/>
<text text-anchor="middle" x="52.25" y="-14.3" font-family="Times,serif" font-size="14.00" fill="#000000"> </text>
</g>
<!-- B&#45;&gt;D -->
<g id="edge4" class="edge">
<title>B:c-&gt;D:data</title>
<path fill="none" stroke="#ff0000" d="M76.6197,-83.9618C74.8824,-80.4663 72.5867,-76.3535 70,-73 57.9924,-57.433 39.1265,-58.8984 32.9961,-46.3794"/>
<ellipse fill="#ff0000" stroke="#ff0000" cx="78.3633" cy="-87.8501" rx="4" ry="4"/>
<polygon fill="#ff0000" stroke="#ff0000" points="31,-36.5 37.3914,-45.4107 31.9903,-41.401 32.9805,-46.3019 32.9805,-46.3019 32.9805,-46.3019 31.9903,-41.401 28.5697,-47.1932 31,-36.5 31,-36.5"/>
</g>
<!-- E -->
<g id="node5" class="node">
<title>E</title>
<polygon fill="none" stroke="#000000" points="91,-.5 91,-36.5 153,-36.5 153,-.5 91,-.5"/>
<text text-anchor="middle" x="100.75" y="-14.3" font-family="Times,serif" font-size="14.00" fill="#000000"> </text>
<polyline fill="none" stroke="#000000" points="110.5,-.5 110.5,-36.5 "/>
<text text-anchor="middle" x="122" y="-14.3" font-family="Times,serif" font-size="14.00" fill="#000000">9</text>
<polyline fill="none" stroke="#000000" points="133.5,-.5 133.5,-36.5 "/>
<text text-anchor="middle" x="143.25" y="-14.3" font-family="Times,serif" font-size="14.00" fill="#000000"> </text>
</g>
<!-- B&#45;&gt;E -->
<g id="edge3" class="edge">
<title>B:c-&gt;E:data</title>
<path fill="none" stroke="#ff0000" d="M122,-83.3C122,-74.7355 122,-60.6526 122,-46.8775"/>
<ellipse fill="#ff0000" stroke="#ff0000" cx="122" cy="-87.5" rx="4" ry="4"/>
<polygon fill="#ff0000" stroke="#ff0000" points="122,-36.5 126.5001,-46.5 122,-41.5 122.0001,-46.5 122.0001,-46.5 122.0001,-46.5 122,-41.5 117.5001,-46.5 122,-36.5 122,-36.5"/>
</g>
<!-- F -->
<g id="node6" class="node">
<title>F</title>
<polygon fill="none" stroke="#000000" points="280.5,-.5 280.5,-36.5 349.5,-36.5 349.5,-.5 280.5,-.5"/>
<text text-anchor="middle" x="290.25" y="-14.3" font-family="Times,serif" font-size="14.00" fill="#000000"> </text>
<polyline fill="none" stroke="#000000" points="300,-.5 300,-36.5 "/>
<text text-anchor="middle" x="315" y="-14.3" font-family="Times,serif" font-size="14.00" fill="#000000">13</text>
<polyline fill="none" stroke="#000000" points="330,-.5 330,-36.5 "/>
<text text-anchor="middle" x="339.75" y="-14.3" font-family="Times,serif" font-size="14.00" fill="#000000"> </text>
</g>
<!-- C&#45;&gt;F -->
<g id="edge6" class="edge">
<title>C:c-&gt;F:data</title>
<path fill="none" stroke="#ff0000" d="M269.924,-83.9443C271.4617,-80.445 273.5402,-76.334 276,-73 287.672,-57.1797 306.7581,-58.8113 312.9741,-46.3569"/>
<ellipse fill="#ff0000" stroke="#ff0000" cx="268.4437" cy="-87.7696" rx="4" ry="4"/>
<polygon fill="#ff0000" stroke="#ff0000" points="315,-36.5 317.3946,-47.2012 313.9934,-41.3976 312.9867,-46.2953 312.9867,-46.2953 312.9867,-46.2953 313.9934,-41.3976 308.5789,-45.3893 315,-36.5 315,-36.5"/>
</g>
<!-- G -->
<g id="node7" class="node">
<title>G</title>
<polygon fill="none" stroke="#000000" points="182.5,-.5 182.5,-36.5 251.5,-36.5 251.5,-.5 182.5,-.5"/>
<text text-anchor="middle" x="192.25" y="-14.3" font-family="Times,serif" font-size="14.00" fill="#000000"> </text>
<polyline fill="none" stroke="#000000" points="202,-.5 202,-36.5 "/>
<text text-anchor="middle" x="217" y="-14.3" font-family="Times,serif" font-size="14.00" fill="#000000">11</text>
<polyline fill="none" stroke="#000000" points="232,-.5 232,-36.5 "/>
<text text-anchor="middle" x="241.75" y="-14.3" font-family="Times,serif" font-size="14.00" fill="#000000"> </text>
</g>
<!-- C&#45;&gt;G -->
<g id="edge5" class="edge">
<title>C:c-&gt;G:data</title>
<path fill="none" stroke="#ff0000" d="M217,-83.3C217,-74.7355 217,-60.6526 217,-46.8775"/>
<ellipse fill="#ff0000" stroke="#ff0000" cx="217" cy="-87.5" rx="4" ry="4"/>
<polygon fill="#ff0000" stroke="#ff0000" points="217,-36.5 221.5001,-46.5 217,-41.5 217.0001,-46.5 217.0001,-46.5 217.0001,-46.5 217,-41.5 212.5001,-46.5 217,-36.5 217,-36.5"/>
</g>
</g>
</svg>